<?xml version="1.0" encoding="UTF-8" standalone="no"?>
<!DOCTYPE svg PUBLIC "-//W3C//DTD SVG 1.1//EN" "http://www.w3.org/Graphics/SVG/1.1/DTD/svg11.dtd">
<svg width="100%" height="100%" viewBox="0 0 126 126" version="1.1"
  xmlns="http://www.w3.org/2000/svg"
  xmlns:xlink="http://www.w3.org/1999/xlink" xml:space="preserve"
  xmlns:serif="http://www.serif.com/" style="fill-rule:evenodd;clip-rule:evenodd;stroke-linejoin:round;stroke-miterlimit:1.41421;">
  <path d="M103.5,0c3.762,0.003 7.395,0.971 10.725,2.716c0.966,0.506 1.808,1.221 2.712,1.831l-53.937,40.453l-53.937,-40.453c4.403,-3.289 8.02,-4.273 13.437,-4.547l81,0Z" style="fill:#ffe600;fill-rule:nonzero;"/>
  <path d="M9.063,4.547l53.937,40.453l-58.039,72.55c-3.441,-4.417 -4.682,-8.528 -4.961,-14.05l0,-81c0.065,-5.221 1.801,-10.265 5.138,-14.312c0.915,-1.109 2.034,-2.033 3.05,-3.05l0.875,-0.591Z" style="fill:#bbd500;fill-rule:nonzero;"/>
  <path d="M63,45l58.04,72.549l-0.178,0.263c-4.901,5.465 -10.068,7.82 -17.362,8.188l-81,0c-5.221,-0.065 -10.265,-1.801 -14.312,-5.138c-1.109,-0.915 -2.033,-2.033 -3.05,-3.05l-0.177,-0.262l58.039,-72.55Z" style="fill:#ff8a00;fill-rule:nonzero;"/>
  <path d="M116.937,4.547c3.844,2.631 6.684,6.83 8.051,11.262c0.441,1.427 0.673,2.914 0.896,4.391c0.114,0.759 0.077,1.533 0.116,2.3l0,81c-0.023,3.748 -0.939,7.415 -2.716,10.725c-0.632,1.178 -1.496,2.216 -2.245,3.325l-58.039,-72.55l53.937,-40.453Z" style="fill:#75b7fd;fill-rule:nonzero;"/>
  <path d="M32.063,9l61.874,0c7.767,0 14.063,6.296 14.063,14.063l0,61.874c0,7.767 -6.296,14.063 -14.063,14.063l-61.875,0c-7.766,0 -14.062,-6.296 -14.062,-14.063l0,-61.875c0,-7.766 6.296,-14.062 14.062,-14.062Z" style="fill:#fff;fill-rule:nonzero;"/>
  <path d="M29.633,29.321l6.621,0l0,-9.197l6.757,0l0,9.197l8.199,0l0,-9.197l6.757,0l0,9.197l6.622,0l-0.001,8.504l-6.621,0l0,9.567l6.622,0l-0.001,8.503l-6.621,0l0,9.197l-6.757,0.001l0,-9.198l-8.199,0l0,9.197l-6.757,0.001l0,-9.198l-6.621,0l0,-8.503l6.621,0l0,-9.567l-6.621,0l0,-8.504Zm13.378,8.504l0,9.567l8.199,0l0,-9.567l-8.199,0Z" style="fill:#737373;"/>
</svg>
